<svg width="270" height="310" viewBox="0 0 270 310" fill="none" xmlns="http://www.w3.org/2000/svg">
<rect width="270" height="310" fill="white"/>
<path d="M70.5537 148.203H72.2412V161H70.5537V151.139L64.252 161H62.5557V148.203H64.252V158.064L70.5537 148.203Z" fill="#6B6B6B"/>
<path d="M80.292 154.092C80.292 153.646 80.1221 153.295 79.7822 153.037C79.4424 152.773 78.9766 152.642 78.3848 152.642C77.8105 152.642 77.3301 152.791 76.9434 153.09C76.5625 153.389 76.3721 153.74 76.3721 154.145H74.7549C74.7549 153.318 75.1006 152.642 75.792 152.114C76.4834 151.587 77.3477 151.323 78.3848 151.323C79.498 151.323 80.3652 151.563 80.9863 152.044C81.6074 152.519 81.918 153.198 81.918 154.083C81.918 154.511 81.7891 154.903 81.5312 155.261C81.2734 155.618 80.9072 155.902 80.4326 156.113C81.54 156.488 82.0938 157.227 82.0938 158.328C82.0938 159.201 81.7568 159.893 81.083 160.402C80.4092 160.912 79.5098 161.167 78.3848 161.167C77.2891 161.167 76.3838 160.9 75.6689 160.367C74.96 159.828 74.6055 159.102 74.6055 158.188H76.2227C76.2227 158.65 76.4277 159.049 76.8379 159.383C77.2539 159.711 77.7695 159.875 78.3848 159.875C79.0059 159.875 79.5068 159.731 79.8877 159.444C80.2686 159.157 80.459 158.785 80.459 158.328C80.459 157.795 80.2979 157.414 79.9756 157.186C79.6592 156.951 79.1641 156.834 78.4902 156.834H76.8643V155.463H78.6309C79.7383 155.434 80.292 154.977 80.292 154.092Z" fill="#6B6B6B"/>
<path d="M83.7725 156.157C83.7725 155.226 83.9541 154.388 84.3174 153.644C84.6865 152.899 85.1963 152.325 85.8467 151.921C86.5029 151.517 87.25 151.314 88.0879 151.314C89.3828 151.314 90.4287 151.763 91.2256 152.659C92.0283 153.556 92.4297 154.748 92.4297 156.236V156.351C92.4297 157.276 92.251 158.108 91.8936 158.847C91.542 159.579 91.0352 160.15 90.373 160.561C89.7168 160.971 88.9609 161.176 88.1055 161.176C86.8164 161.176 85.7705 160.728 84.9678 159.831C84.1709 158.935 83.7725 157.748 83.7725 156.271V156.157ZM85.4072 156.351C85.4072 157.405 85.6504 158.252 86.1367 158.891C86.6289 159.529 87.2852 159.849 88.1055 159.849C88.9316 159.849 89.5879 159.526 90.0742 158.882C90.5605 158.231 90.8037 157.323 90.8037 156.157C90.8037 155.114 90.5547 154.271 90.0566 153.626C89.5645 152.976 88.9082 152.65 88.0879 152.65C87.2852 152.65 86.6377 152.97 86.1455 153.608C85.6533 154.247 85.4072 155.161 85.4072 156.351Z" fill="#6B6B6B"/>
<path d="M98.6436 152.035C99.8389 152.035 100.794 152.437 101.509 153.239C102.229 154.036 102.59 155.088 102.59 156.395V156.544C102.59 157.44 102.417 158.243 102.071 158.952C101.726 159.655 101.228 160.203 100.577 160.596C99.9326 160.982 99.1885 161.176 98.3447 161.176C97.0674 161.176 96.0391 160.751 95.2598 159.901C94.4805 159.046 94.0908 157.9 94.0908 156.465V155.674C94.0908 153.676 94.46 152.088 95.1982 150.91C95.9424 149.732 97.0381 149.015 98.4854 148.757C99.3057 148.61 99.8594 148.432 100.146 148.221C100.434 148.01 100.577 147.72 100.577 147.351H101.913C101.913 148.083 101.746 148.654 101.412 149.064C101.084 149.475 100.557 149.765 99.8301 149.935L98.6172 150.207C97.6504 150.436 96.9238 150.822 96.4375 151.367C95.957 151.906 95.6436 152.627 95.4971 153.529C96.3584 152.533 97.4072 152.035 98.6436 152.035ZM98.3271 153.371C97.5303 153.371 96.8975 153.641 96.4287 154.18C95.96 154.713 95.7256 155.454 95.7256 156.403V156.544C95.7256 157.563 95.96 158.372 96.4287 158.97C96.9033 159.562 97.542 159.857 98.3447 159.857C99.1533 159.857 99.792 159.559 100.261 158.961C100.729 158.363 100.964 157.49 100.964 156.342C100.964 155.445 100.727 154.728 100.252 154.188C99.7832 153.644 99.1416 153.371 98.3271 153.371Z" fill="#6B6B6B"/>
<path d="M112.293 156.351C112.293 157.798 111.962 158.964 111.3 159.849C110.638 160.733 109.741 161.176 108.61 161.176C107.456 161.176 106.548 160.81 105.886 160.077V164.656H104.26V151.49H105.745L105.824 152.545C106.486 151.725 107.406 151.314 108.584 151.314C109.727 151.314 110.629 151.745 111.291 152.606C111.959 153.468 112.293 154.666 112.293 156.201V156.351ZM110.667 156.166C110.667 155.094 110.438 154.247 109.981 153.626C109.524 153.005 108.897 152.694 108.101 152.694C107.116 152.694 106.378 153.131 105.886 154.004V158.548C106.372 159.415 107.116 159.849 108.118 159.849C108.897 159.849 109.516 159.541 109.973 158.926C110.436 158.305 110.667 157.385 110.667 156.166Z" fill="#6B6B6B"/>
<path d="M120.238 161C120.145 160.812 120.068 160.479 120.01 159.998C119.254 160.783 118.352 161.176 117.303 161.176C116.365 161.176 115.595 160.912 114.991 160.385C114.394 159.852 114.095 159.178 114.095 158.363C114.095 157.373 114.47 156.605 115.22 156.061C115.976 155.51 117.036 155.234 118.401 155.234H119.983V154.487C119.983 153.919 119.813 153.468 119.474 153.134C119.134 152.794 118.633 152.624 117.971 152.624C117.391 152.624 116.904 152.771 116.512 153.063C116.119 153.356 115.923 153.711 115.923 154.127H114.288C114.288 153.652 114.455 153.195 114.789 152.756C115.129 152.311 115.586 151.959 116.16 151.701C116.74 151.443 117.376 151.314 118.067 151.314C119.163 151.314 120.021 151.59 120.643 152.141C121.264 152.686 121.586 153.438 121.609 154.399V158.776C121.609 159.649 121.721 160.344 121.943 160.859V161H120.238ZM117.54 159.761C118.05 159.761 118.533 159.629 118.99 159.365C119.447 159.102 119.778 158.759 119.983 158.337V156.386H118.709C116.717 156.386 115.721 156.969 115.721 158.135C115.721 158.645 115.891 159.043 116.23 159.33C116.57 159.617 117.007 159.761 117.54 159.761Z" fill="#6B6B6B"/>
<path d="M131.743 156.869H130.601V161H128.975V156.869H127.832L125.169 161H123.112L126.514 156.078L123.438 151.49H125.406L127.858 155.428H128.975V151.49H130.601V155.428H131.708L134.178 151.49H136.146L133.062 156.087L136.463 161H134.406L131.743 156.869Z" fill="#6B6B6B"/>
<path d="M141.71 161.176C140.421 161.176 139.372 160.754 138.563 159.91C137.755 159.061 137.351 157.927 137.351 156.509V156.21C137.351 155.267 137.529 154.426 137.887 153.688C138.25 152.943 138.754 152.363 139.398 151.947C140.049 151.525 140.752 151.314 141.508 151.314C142.744 151.314 143.705 151.722 144.391 152.536C145.076 153.351 145.419 154.517 145.419 156.034V156.711H138.977C139 157.648 139.272 158.407 139.794 158.987C140.321 159.562 140.989 159.849 141.798 159.849C142.372 159.849 142.858 159.731 143.257 159.497C143.655 159.263 144.004 158.952 144.303 158.565L145.296 159.339C144.499 160.563 143.304 161.176 141.71 161.176ZM141.508 152.65C140.852 152.65 140.301 152.891 139.855 153.371C139.41 153.846 139.135 154.514 139.029 155.375H143.793V155.252C143.746 154.426 143.523 153.787 143.125 153.336C142.727 152.879 142.188 152.65 141.508 152.65Z" fill="#6B6B6B"/>
<path d="M155.078 161H153.452V156.939H149.084V161H147.449V151.49H149.084V155.612H153.452V151.49H155.078V161Z" fill="#6B6B6B"/>
<path d="M163.85 151.49H165.476V161H163.85V154.065L159.464 161H157.838V151.49H159.464V158.434L163.85 151.49Z" fill="#6B6B6B"/>
<path d="M175.354 151.49V161H173.72V157.3H171.268L169.026 161H167.269L169.659 157.054C169.05 156.831 168.581 156.488 168.253 156.025C167.931 155.557 167.77 155.012 167.77 154.391C167.77 153.523 168.095 152.826 168.745 152.299C169.396 151.766 170.266 151.496 171.355 151.49H175.354ZM169.404 154.408C169.404 154.871 169.562 155.246 169.879 155.533C170.195 155.814 170.614 155.958 171.136 155.964H173.72V152.809H171.382C170.778 152.809 170.298 152.958 169.94 153.257C169.583 153.55 169.404 153.934 169.404 154.408Z" fill="#6B6B6B"/>
<path d="M190.199 161H188.573V156.939H184.205V161H182.57V151.49H184.205V155.612H188.573V151.49H190.199V161Z" fill="#6B6B6B"/>
<path d="M196.765 161.176C195.476 161.176 194.427 160.754 193.618 159.91C192.81 159.061 192.405 157.927 192.405 156.509V156.21C192.405 155.267 192.584 154.426 192.941 153.688C193.305 152.943 193.809 152.363 194.453 151.947C195.104 151.525 195.807 151.314 196.562 151.314C197.799 151.314 198.76 151.722 199.445 152.536C200.131 153.351 200.474 154.517 200.474 156.034V156.711H194.031C194.055 157.648 194.327 158.407 194.849 158.987C195.376 159.562 196.044 159.849 196.853 159.849C197.427 159.849 197.913 159.731 198.312 159.497C198.71 159.263 199.059 158.952 199.357 158.565L200.351 159.339C199.554 160.563 198.358 161.176 196.765 161.176ZM196.562 152.65C195.906 152.65 195.355 152.891 194.91 153.371C194.465 153.846 194.189 154.514 194.084 155.375H198.848V155.252C198.801 154.426 198.578 153.787 198.18 153.336C197.781 152.879 197.242 152.65 196.562 152.65Z" fill="#6B6B6B"/>
<path d="M209.324 152.809H206.134V161H204.508V152.809H201.379V151.49H209.324V152.809Z" fill="#6B6B6B"/>
</svg>
